PathFileType  4	(X/Y/Z) C:\Users\wagnerel85475\Documents\Thesis\opencap-core\Data\3375ffbc-daeb-4a43-b4f7-ac9899cd4c71\MarkerData\PreAugmentation
DataRate	CameraRate	NumFrames	NumMarkers	Units	OrigDataRate	OrigDataStartFrame	OrigNumFrames
32.0	32.0	12	20	m	32.0	22	65
Frame#	Time	Neck			RShoulder			RElbow			RWrist			LShoulder			LElbow			LWrist			midHip			RHip			RKnee			RAnkle			LHip			LKnee			LAnkle			LBigToe			LSmallToe			LHeel			RBigToe			RSmallToe			RHeel			
		X1	Y1	Z1	X2	Y2	Z2	X3	Y3	Z3	X4	Y4	Z4	X5	Y5	Z5	X6	Y6	Z6	X7	Y7	Z7	X8	Y8	Z8	X9	Y9	Z9	X10	Y10	Z10	X11	Y11	Z11	X12	Y12	Z12	X13	Y13	Z13	X14	Y14	Z14	X15	Y15	Z15	X16	Y16	Z16	X17	Y17	Z17	X18	Y18	Z18	X19	Y19	Z19	X20	Y20	Z20	

22	0.6562500	0.0295000	1.3605000	-0.1420100	0.0137500	1.3701300	0.0379000	0.0188200	1.0810100	0.1690700	0.0784900	0.7989500	0.2841900	0.0374300	1.3563200	-0.3303400	0.0132500	1.0700200	-0.4252200	0.0486700	0.7735800	-0.5176000	0.0661700	0.8078900	-0.1291200	0.0790800	0.8087100	-0.0015200	-0.0134600	0.3104400	-0.0218800	-0.0971500	-0.1905100	0.0157500	0.0875300	0.8074900	-0.2478100	-0.0222600	0.3117200	-0.2428200	-0.0803600	-0.1881600	-0.2778800	0.1739000	-0.2356300	-0.3118100	0.1166500	-0.2411500	-0.3523800	-0.1180400	-0.2475300	-0.2700600	0.1604700	-0.2431100	0.0618100	0.0926600	-0.2272600	0.1020000	-0.0971100	-0.2327500	0.0060100
23	0.6875000	0.0294400	1.3605900	-0.1419700	0.0135700	1.3704500	0.0379000	0.0188000	1.0809700	0.1690400	0.0790400	0.7950600	0.2840500	0.0373000	1.3562500	-0.3302400	0.0135500	1.0699900	-0.4250200	0.0485600	0.7735300	-0.5176500	0.0662800	0.8079200	-0.1290500	0.0679200	0.8074400	0.0033700	-0.0134000	0.3101800	-0.0218700	-0.0930700	-0.1840800	0.0158100	0.0872100	0.8073300	-0.2475200	-0.0223000	0.3114300	-0.2428000	-0.0803000	-0.1883700	-0.2779900	0.1736100	-0.2359300	-0.3118700	0.1163600	-0.2415500	-0.3522400	-0.1185800	-0.2476200	-0.2702500	0.1609200	-0.2427200	0.0614700	0.0926400	-0.2272100	0.1019100	-0.0971300	-0.2326600	0.0060300
24	0.7187500	0.0294700	1.3605200	-0.1420100	0.0138500	1.3701800	0.0378500	0.0186700	1.0809500	0.1691400	0.0789700	0.7949000	0.2840300	0.0373800	1.3563500	-0.3303000	0.0134300	1.0699200	-0.4252800	0.0487000	0.7735300	-0.5176100	0.0661700	0.8041800	-0.1289000	0.0682500	0.8076000	0.0032300	-0.0136300	0.3066600	-0.0214500	-0.0897400	-0.1861700	0.0159300	0.0875900	0.8074700	-0.2478000	-0.0217500	0.3085000	-0.2426900	-0.0802000	-0.1881600	-0.2778900	0.1738400	-0.2359400	-0.3117800	0.1166100	-0.2415900	-0.3523700	-0.1177900	-0.2474900	-0.2700800	0.1603800	-0.2431400	0.0618200	0.0925600	-0.2273000	0.1020100	-0.0972300	-0.2322600	0.0059100
25	0.7500000	0.0294400	1.3606300	-0.1419600	0.0254100	1.3654600	0.0330000	0.0186600	1.0809100	0.1691200	0.0791200	0.7950500	0.2840600	0.0372100	1.3563400	-0.3302200	0.0136600	1.0699000	-0.4250700	0.0484400	0.7734200	-0.5177100	0.0544900	0.8031300	-0.1328200	0.0678300	0.8074200	0.0033300	-0.0135400	0.3063500	-0.0214400	-0.0920000	-0.1919300	0.0158000	0.0871400	0.8072800	-0.2476200	-0.0217800	0.3084900	-0.2426900	-0.0798100	-0.1922000	-0.2773500	0.1737800	-0.2360300	-0.3118800	0.1166400	-0.2417600	-0.3522000	-0.1185800	-0.2475900	-0.2703300	0.1610300	-0.2427900	0.0614500	0.0927900	-0.2272300	0.1019100	-0.0969600	-0.2327300	0.0060400
26	0.7812500	0.0294600	1.3604700	-0.1420100	0.0255800	1.3651200	0.0329600	0.0186800	1.0808900	0.1691500	0.0788600	0.7948900	0.2840600	0.0374000	1.3563400	-0.3303100	0.0133500	1.0698900	-0.4252800	0.0485600	0.7734800	-0.5176500	0.0544100	0.8030300	-0.1328700	0.0681200	0.8075500	0.0032000	-0.0136100	0.3066400	-0.0214400	-0.0922900	-0.1920100	0.0158000	0.0875600	0.8072600	-0.2479600	-0.0216800	0.3085500	-0.2427200	-0.0798700	-0.1918500	-0.2771700	0.1739400	-0.2358100	-0.3118200	0.1167000	-0.2414300	-0.3523600	-0.1187000	-0.2440100	-0.2696900	0.1609800	-0.2472200	0.0612400	0.0928400	-0.2272500	0.1020200	-0.0968700	-0.2328100	0.0060500
27	0.8125000	0.0293600	1.3605800	-0.1419600	0.0140200	1.3655900	0.0379900	0.0187700	1.0808400	0.1691400	0.0785900	0.7991200	0.2842400	0.0250400	1.3564100	-0.3258900	0.0136800	1.0698500	-0.4250500	0.0484400	0.7734500	-0.5177000	0.0545400	0.8030600	-0.1328100	0.0677900	0.8073600	0.0033600	-0.0135200	0.3063400	-0.0214700	-0.0919900	-0.1919900	0.0158000	0.0872500	0.8072600	-0.2476400	-0.0216500	0.3084400	-0.2427300	-0.0797000	-0.1920900	-0.2773300	0.1737100	-0.2359700	-0.3119100	0.1165500	-0.2416800	-0.3522200	-0.1192100	-0.2440700	-0.2699400	0.1614400	-0.2468700	0.0608900	0.0927200	-0.2272200	0.1018900	-0.0969100	-0.2328500	0.0060800
28	0.8437500	0.0294200	1.3604600	-0.1420200	0.0142500	1.3652900	0.0379500	0.0187700	1.0808900	0.1691700	0.0785200	0.7990200	0.2842200	0.0252100	1.3564400	-0.3260100	0.0133500	1.0698600	-0.4252700	0.0486100	0.7734500	-0.5176600	0.0544300	0.8067700	-0.1330300	0.0681300	0.8075700	0.0032200	-0.0135600	0.3066400	-0.0214700	-0.0923000	-0.1920700	0.0157800	0.0876000	0.8074000	-0.2479400	-0.0217100	0.3086600	-0.2427500	-0.0800800	-0.1874400	-0.2766600	0.1738700	-0.2357800	-0.3118400	0.1166300	-0.2414000	-0.3523800	-0.1186600	-0.2440100	-0.2697000	0.1608400	-0.2473200	0.0612400	0.0926500	-0.2273000	0.1020000	-0.0969100	-0.2327300	0.0060100
29	0.8750000	0.0292600	1.3606500	-0.1419700	0.0139400	1.3656800	0.0379800	0.0314700	1.0814200	0.1724400	0.0790800	0.7951400	0.2840500	0.0248700	1.3564500	-0.3258900	0.0135400	1.0696800	-0.4250700	0.0485000	0.7734500	-0.5177300	0.0544800	0.8068800	-0.1329900	0.0673700	0.8120800	0.0035000	-0.0136900	0.3109500	-0.0211100	-0.0920500	-0.1921000	0.0157800	0.0872500	0.8074100	-0.2475900	-0.0223300	0.3115600	-0.2428800	-0.0797200	-0.1876100	-0.2767200	0.1735600	-0.2401600	-0.3123100	0.1165400	-0.2416400	-0.3522100	-0.1190400	-0.2440100	-0.2698800	0.1612300	-0.2469400	0.0608800	0.0924800	-0.2272900	0.1018400	-0.0971200	-0.2327000	0.0060000
30	0.9062500	0.0293300	1.3604800	-0.1420400	0.0141700	1.3653000	0.0379500	0.0315400	1.0814600	0.1724400	0.0790400	0.7950700	0.2839900	0.0250500	1.3564500	-0.3260100	0.0132500	1.0697900	-0.4253100	0.0486900	0.7734700	-0.5177100	0.0542400	0.8030800	-0.1327800	0.0676900	0.8122500	0.0033900	-0.0135300	0.3113000	-0.0211600	-0.0923700	-0.1921400	0.0157700	0.0754600	0.8061600	-0.2433000	-0.0222300	0.3117000	-0.2429200	-0.0799200	-0.1833200	-0.2772200	0.1734500	-0.2400900	-0.3121300	0.1049200	-0.2452600	-0.3482600	-0.1179800	-0.2391700	-0.2701400	0.1606300	-0.2473700	0.0612500	0.0924200	-0.2273300	0.1019400	-0.0971500	-0.2325200	0.0059400
31	0.9375000	0.0291000	1.3570400	-0.1420100	0.0139000	1.3656100	0.0379900	0.0315100	1.0814700	0.1724200	0.0787300	0.7992000	0.2841800	0.0248900	1.3564200	-0.3258800	0.0135200	1.0697700	-0.4250600	0.0486500	0.7734500	-0.5177700	0.0543800	0.8068200	-0.1329300	0.0673300	0.8120300	0.0035400	-0.0136200	0.3145400	-0.0215200	-0.0965600	-0.1904800	0.0157400	0.0751300	0.8060800	-0.2430000	-0.0222800	0.3114800	-0.2429000	-0.0797900	-0.1836100	-0.2773700	0.1733100	-0.2402300	-0.3122400	0.1048700	-0.2455200	-0.3481400	-0.1185200	-0.2393000	-0.2703700	0.1611400	-0.2469700	0.0609100	0.0924100	-0.2272700	0.1018500	-0.0971300	-0.2325800	0.0059700
32	0.9687500	0.0293300	1.3604600	-0.1420500	0.0141000	1.3652900	0.0379700	0.0315700	1.0814900	0.1724300	0.0790900	0.7950300	0.2840200	0.0251600	1.3564600	-0.3260400	0.0133300	1.0697700	-0.4253400	0.0487700	0.7734900	-0.5177100	0.0542900	0.8068100	-0.1329900	0.0677300	0.8122800	0.0033700	-0.0136400	0.3148400	-0.0215100	-0.0969700	-0.1906100	0.0157500	0.0755500	0.8061800	-0.2433700	-0.0223200	0.3116100	-0.2428900	-0.0798700	-0.1833000	-0.2772100	0.1735300	-0.2400700	-0.3121600	0.1049800	-0.2452500	-0.3482800	-0.1179500	-0.2391900	-0.2701300	0.1606500	-0.2473500	0.0612400	0.0923800	-0.2273400	0.1019600	-0.0971700	-0.2324400	0.0059200
33	1.0000000	0.0292700	1.3606100	-0.1419900	0.0135100	1.3704400	0.0379100	0.0315800	1.0814500	0.1723900	0.0791200	0.7951600	0.2840100	0.0249200	1.3564800	-0.3259000	0.0136400	1.0697600	-0.4250700	0.0486800	0.7734300	-0.5177700	0.0544000	0.8068600	-0.1329700	0.0673500	0.8120700	0.0035300	-0.0132500	0.3101600	-0.0218800	-0.0965500	-0.1904700	0.0157500	0.0751800	0.8061700	-0.2430700	-0.0223100	0.3115000	-0.2428900	-0.0797700	-0.1836200	-0.2773700	0.1734300	-0.2360300	-0.3118200	0.1048500	-0.2455200	-0.3481300	-0.1185100	-0.2393000	-0.2703700	0.1611000	-0.2469700	0.0609300	0.0923900	-0.2272900	0.1018600	-0.0971200	-0.2325700	0.0059700
